# xmcd CD database file
#
# Track frame offsets:
#	150
#	25862
#	48157
#	74732
#	103005
#	123310
#	151220
#	172166
#	197348
#	216530
#	234780
#	251200
#	274488
#	296688
#
# Disc length: 4179 seconds
#
# Revision: 0
# Processed by: cddbd v1.5.2PL0 Copyright (c) Steve Scherf et al.
# Submitted via: CDex 1.70beta2
#
DISCID=d510510e
DTITLE=Schiller - Sonne Disc 2
DYEAR=2012
DGENRE=New Age
TTITLE0=Sonnenuhr
TTITLE1=Oasis (Mit Kate Havnevik)
TTITLE2=Sonnenwelten
TTITLE3=Epic Shores (Mit Meredith Call)
TTITLE4=Energy (Mit Tim Brownlow)
TTITLE5=Pale Blue Eyes (Mit Andrea Corr)
TTITLE6=Ultramarin
TTITLE7=Dancing In The Dark (Mit Ameerah)
TTITLE8=Klangwelten
TTITLE9=Lay Down (Mit Paper Aeroplanes)
TTITLE10=Geborgenheit
TTITLE11=Sahara Avenue
TTITLE12=The Silence (Mit Meredith Call)
TTITLE13=Reprise
EXTD=YEAR: 2012
EXTT0=
EXTT1=
EXTT2=
EXTT3=
EXTT4=
EXTT5=
EXTT6=
EXTT7=
EXTT8=
EXTT9=
EXTT10=
EXTT11=
EXTT12=
EXTT13=
PLAYORDER=
